HIERARCHY
ROOT root
{
  OFFSET 0 95.9893 0
  CHANNELS 6 Xposition Yposition Zposition Zrotation Xrotation Yrotation
  JOINT torso_1
  {
    OFFSET 0 5.22546 -1.18466
    CHANNELS 6 Xposition Yposition Zposition Zrotation Xrotation Yrotation
    JOINT torso_2
    {
      OFFSET 0 5.77894 1.10239
      CHANNELS 6 Xposition Yposition Zposition Zrotation Xrotation Yrotation
      JOINT torso_3
      {
        OFFSET -1.0557e-17 6.16289 0.118334
        CHANNELS 6 Xposition Yposition Zposition Zrotation Xrotation Yrotation
        JOINT torso_4
        {
          OFFSET -1.13649e-17 6.69386 -0.456341
          CHANNELS 6 Xposition Yposition Zposition Zrotation Xrotation Yrotation
          JOINT torso_5
          {
            OFFSET -2.02997e-17 7.82529 -1.54945
            CHANNELS 6 Xposition Yposition Zposition Zrotation Xrotation Yrotation
            JOINT torso_6
            {
              OFFSET -2.60628e-17 9.77186 -0.940923
              CHANNELS 6 Xposition Yposition Zposition Zrotation Xrotation Yrotation
              JOINT torso_7
              {
                OFFSET -2.98794e-17 10.8563 1.62248
                CHANNELS 6 Xposition Yposition Zposition Zrotation Xrotation Yrotation
                JOINT neck_1
                {
                  OFFSET -1.32927e-17 4.92478 0.736013
                  CHANNELS 6 Xposition Yposition Zposition Zrotation Xrotation Yrotation
                  JOINT neck_2
                  {
                    OFFSET -1.86396e-17 4.96043 0.433981
                    CHANNELS 6 Xposition Yposition Zposition Zrotation Xrotation Yrotation
                    JOINT head
                    {
                      OFFSET -2.06766e-17 4.97002 0.787173
                      CHANNELS 6 Xposition Yposition Zposition Zrotation Xrotation Yrotation
                      End Site
                      {
                        OFFSET 0 0.1 0
                      }
                    }
                  }
                }
                JOINT l_shoulder
                {
                  OFFSET 1.26863 -7.82717 7.75148
                  CHANNELS 6 Xposition Yposition Zposition Zrotation Xrotation Yrotation
                  JOINT l_up_arm
                  {
                    OFFSET 13.3291 3.34342 -3.36319
                    CHANNELS 6 Xposition Yposition Zposition Zrotation Xrotation Yrotation
                    JOINT l_low_arm
                    {
                      OFFSET 30.0522 0.0615366 0.141
                      CHANNELS 6 Xposition Yposition Zposition Zrotation Xrotation Yrotation
                      JOINT l_hand
                      {
                        OFFSET 24.9344 0.0510561 0.116988
                        CHANNELS 6 Xposition Yposition Zposition Zrotation Xrotation Yrotation
                        End Site
                        {
                          OFFSET 0.1 0 0
                        }
                      }
                    }
                  }
                }
                JOINT r_shoulder
                {
                  OFFSET -1.26863 -7.82715 7.75138
                  CHANNELS 6 Xposition Yposition Zposition Zrotation Xrotation Yrotation
                  JOINT r_up_arm
                  {
                    OFFSET -13.3291 3.34342 -3.36319
                    CHANNELS 6 Xposition Yposition Zposition Zrotation Xrotation Yrotation
                    JOINT r_low_arm
                    {
                      OFFSET -30.0522 0.0615366 0.141
                      CHANNELS 6 Xposition Yposition Zposition Zrotation Xrotation Yrotation
                      JOINT r_hand
                      {
                        OFFSET -24.9344 0.0510559 0.116988
                        CHANNELS 6 Xposition Yposition Zposition Zrotation Xrotation Yrotation
                        End Site
                        {
                          OFFSET -0.1 0 0
                        }
                      }
                    }
                  }
                }
              }
            }
          }
        }
      }
    }
  }
  JOINT l_up_leg
  {
    OFFSET 9.50369 -4.32711 2.09145
    CHANNELS 6 Xposition Yposition Zposition Zrotation Xrotation Yrotation
    JOINT l_low_leg
    {
      OFFSET -0.876987 -39.8926 -0.674123
      CHANNELS 6 Xposition Yposition Zposition Zrotation Xrotation Yrotation
      JOINT l_foot
      {
        OFFSET -2.39345 -41.5694 -6.22357
        CHANNELS 6 Xposition Yposition Zposition Zrotation Xrotation Yrotation
        JOINT l_toes
        {
          OFFSET 0.801613 -10.1701 12.8571
          CHANNELS 6 Xposition Yposition Zposition Zrotation Xrotation Yrotation
          End Site
          {
            OFFSET 0 0 0.1
          }
        }
      }
    }
  }
  JOINT r_up_leg
  {
    OFFSET -9.50369 -4.32711 2.09145
    CHANNELS 6 Xposition Yposition Zposition Zrotation Xrotation Yrotation
    JOINT r_low_leg
    {
      OFFSET 0.876987 -39.8926 -0.674123
      CHANNELS 6 Xposition Yposition Zposition Zrotation Xrotation Yrotation
      JOINT r_foot
      {
        OFFSET 2.39345 -41.5694 -6.22357
        CHANNELS 6 Xposition Yposition Zposition Zrotation Xrotation Yrotation
        JOINT r_toes
        {
          OFFSET -0.801613 -10.1701 12.8571
          CHANNELS 6 Xposition Yposition Zposition Zrotation Xrotation Yrotation
          End Site
          {
            OFFSET 0 0 0.1
          }
        }
      }
    }
  }
}
MOTION
Frames: 6
Frame Time: 0.02
0 95.9893 0 -0 0 -0 0 5.22546 -1.18466 -0 0 -0 0 5.77894 1.10239 -0 0 -0 -1.0557e-17 6.16289 0.118334 -0 0 -0 -1.13649e-17 6.69386 -0.456341 -0 0 -0 -2.02997e-17 7.82529 -1.54945 -0 0 -0 -2.60628e-17 9.77186 -0.940923 -0 0 -0 -2.98794e-17 10.8563 1.62248 -0 0 -0 -1.32927e-17 4.92478 0.736013 -0 0 -0 -1.86396e-17 4.96043 0.433981 -0 0 -0 -2.06766e-17 4.97002 0.787173 -0 0 -0 1.26863 -7.82717 7.75148 -0 0 -0 13.3291 3.34342 -3.36319 -0 0 -0 30.0522 0.0615366 0.141 -0 0 -0 24.9344 0.0510561 0.116988 -0 0 -0 -1.26863 -7.82715 7.75138 -0 0 -0 -13.3291 3.34342 -3.36319 -0 0 -0 -30.0522 0.0615366 0.141 -0 0 -0 -24.9344 0.0510559 0.116988 -0 0 -0 9.50369 -4.32711 2.09145 -0 0 -0 -0.876987 -39.8926 -0.674123 -0 0 -0 -2.39345 -41.5694 -6.22357 -0 0 -0 0.801613 -10.1701 12.8571 -0 0 -0 -9.50369 -4.32711 2.09145 -0 0 -0 0.876987 -39.8926 -0.674123 -0 0 -0 2.39345 -41.5694 -6.22357 -0 0 -0 -0.801613 -10.1701 12.8571 -0 0 -0 
-2.15189 95.7902 0.183501 1.1728 -0.765931 -0.654375 0 5.22546 -1.18466 -0.215433 -1.49417 0.22724 0 5.77894 1.10239 -0.306853 -0.962273 0.294634 -1.0557e-17 6.16289 0.118334 -0.364954 -0.59482 0.342558 -1.13649e-17 6.69386 -0.456341 -0.44056 -0.407335 0.316946 -2.02997e-17 7.82529 -1.54945 -0.417008 -0.392038 0.33993 -2.60628e-17 9.77186 -0.940923 -0.288339 -0.743404 0.459687 -2.98794e-17 10.8563 1.62248 -0.0157492 0.186085 0.00599886 -1.32927e-17 4.92478 0.736013 -1.10987 -4.91215 -4.49564 -1.86396e-17 4.96043 0.433981 -3.66906 1.62351 -2.05954 -2.06766e-17 4.97002 0.787173 -6.02756 9.18309 0.703665 1.26863 -7.82717 7.75148 1.51331 3.48965 -3.81532 13.3291 3.34342 -3.36319 -70.2996 33.7021 -13.6492 30.0522 0.0615366 0.141 11.9048 -13.6921 -98.6475 24.9344 0.0510561 0.116988 -6.03267 -42.9592 -10.7337 -1.26863 -7.82715 7.75138 -3.2765 2.32872 2.95766 -13.3291 3.34342 -3.36319 64.3278 45.4736 18.2988 -30.0522 0.0615366 0.141 -11.7417 -14.5488 102.888 -24.9344 0.0510559 0.116988 11.3734 -67.4719 13.237 9.50369 -4.32711 2.09145 1.64504 -0.610024 -17.5942 -0.876987 -39.8926 -0.674123 -0.218829 0.816905 -0.0126989 -2.39345 -41.5694 -6.22357 -1.13928 -0.133465 15.4658 0.801613 -10.1701 12.8571 -3.47873e-16 -8.07563e-16 2.48481e-17 -9.50369 -4.32711 2.09145 -2.30036 -0.765264 19.4758 0.876987 -39.8926 -0.674123 0.591162 2.20775 0.0271483 2.39345 -41.5694 -6.22357 -0.63271 -2.14502 -15.2308 -0.801613 -10.1701 12.8571 -5.96354e-16 -5.59082e-16 -1.27471e-14 
-2.11334 95.7874 0.192808 1.15993 -0.804492 -0.620305 0 5.22546 -1.18466 -0.211123 -1.47475 0.228141 0 5.77894 1.10239 -0.303382 -0.946774 0.296012 -1.0557e-17 6.16289 0.118334 -0.362462 -0.584368 0.344256 -1.13649e-17 6.69386 -0.456341 -0.438989 -0.404952 0.318904 -2.02997e-17 7.82529 -1.54945 -0.416505 -0.395804 0.341662 -2.60628e-17 9.77186 -0.940923 -0.288195 -0.749501 0.46143 -2.98794e-17 10.8563 1.62248 -0.0156812 0.186263 0.00604643 -1.32927e-17 4.92478 0.736013 -1.10609 -4.92208 -4.47254 -1.86396e-17 4.96043 0.433981 -3.66863 1.60895 -2.04895 -2.06766e-17 4.97002 0.787173 -6.03728 9.16676 0.700131 1.26863 -7.82717 7.75148 1.50993 3.49538 -3.82386 13.3291 3.34342 -3.36319 -70.3448 33.6553 -13.6256 30.0522 0.0615366 0.141 11.9052 -13.6896 -98.6349 24.9344 0.0510561 0.116988 -6.03181 -42.9769 -10.746 -1.26863 -7.82715 7.75138 -3.27372 2.32874 2.95606 -13.3291 3.34342 -3.36319 64.2859 45.4792 18.2828 -30.0522 0.0615366 0.141 -11.7396 -14.558 102.934 -24.9344 0.0510559 0.116988 11.4354 -67.4806 13.2949 9.50369 -4.32711 2.09145 1.63436 -0.557446 -17.6588 -0.876987 -39.8926 -0.674123 -0.214096 0.799232 -0.0124572 -2.39345 -41.5694 -6.22357 -1.12094 -0.148774 15.4642 0.801613 -10.1701 12.8571 -3.47873e-16 -8.07563e-16 2.48481e-17 -9.50369 -4.32711 2.09145 -2.31646 -0.68822 19.4301 0.876987 -39.8926 -0.674123 0.577693 2.15743 0.026783 2.39345 -41.5694 -6.22357 -0.616106 -2.13832 -15.2323 -0.801613 -10.1701 12.8571 -5.96354e-16 -5.59082e-16 -1.27471e-14 
-2.07601 95.7812 0.197511 1.13586 -0.815032 -0.577576 0 5.22546 -1.18466 -0.206539 -1.45875 0.229228 0 5.77894 1.10239 -0.299619 -0.934539 0.297671 -1.0557e-17 6.16289 0.118334 -0.35965 -0.576897 0.346334 -1.13649e-17 6.69386 -0.456341 -0.437156 -0.405299 0.321315 -2.02997e-17 7.82529 -1.54945 -0.415775 -0.401035 0.343741 -2.60628e-17 9.77186 -0.940923 -0.287823 -0.757199 0.463364 -2.98794e-17 10.8563 1.62248 -0.0156073 0.186475 0.00611652 -1.32927e-17 4.92478 0.736013 -1.10078 -4.92597 -4.44545 -1.86396e-17 4.96043 0.433981 -3.67121 1.59506 -2.03674 -2.06766e-17 4.97002 0.787173 -6.0301 9.14392 0.685391 1.26863 -7.82717 7.75148 1.5147 3.49745 -3.82237 13.3291 3.34342 -3.36319 -70.4102 33.6179 -13.6013 30.0522 0.0615366 0.141 11.9053 -13.6889 -98.6315 24.9344 0.0510561 0.116988 -6.04194 -42.9864 -10.7583 -1.26863 -7.82715 7.75138 -3.27889 2.32619 2.94688 -13.3291 3.34342 -3.36319 64.2499 45.4943 18.2571 -30.0522 0.0615366 0.141 -11.7371 -14.5686 102.987 -24.9344 0.0510559 0.116988 11.5068 -67.5044 13.3704 9.50369 -4.32711 2.09145 1.63403 -0.526516 -17.7161 -0.876987 -39.8926 -0.674123 -0.205695 0.767857 -0.0120245 -2.39345 -41.5694 -6.22357 -1.08897 -0.179629 15.4621 0.801613 -10.1701 12.8571 4.96962e-17 -7.95139e-16 1.2424e-17 -9.50369 -4.32711 2.09145 -2.32239 -0.629816 19.3933 0.876987 -39.8926 -0.674123 0.559496 2.08945 0.0262708 2.39345 -41.5694 -6.22357 -0.597613 -2.13677 -15.2338 -0.801613 -10.1701 12.8571 -5.96354e-16 -5.59082e-16 -1.27471e-14 
-2.0381 95.7761 0.198473 1.1118 -0.825589 -0.534856 0 5.22546 -1.18466 -0.201795 -1.44514 0.228906 0 5.77894 1.10239 -0.295248 -0.924657 0.298011 -1.0557e-17 6.16289 0.118334 -0.356105 -0.571878 0.347019 -1.13649e-17 6.69386 -0.456341 -0.434423 -0.408208 0.322228 -2.02997e-17 7.82529 -1.54945 -0.414368 -0.408028 0.344193 -2.60628e-17 9.77186 -0.940923 -0.287335 -0.766702 0.463598 -2.98794e-17 10.8563 1.62248 -0.0155586 0.186686 0.00616853 -1.32927e-17 4.92478 0.736013 -1.09619 -4.91701 -4.42611 -1.86396e-17 4.96043 0.433981 -3.67442 1.5856 -2.02795 -2.06766e-17 4.97002 0.787173 -6.03746 9.11628 0.693516 1.26863 -7.82717 7.75148 1.52101 3.50125 -3.81912 13.3291 3.34342 -3.36319 -70.4864 33.577 -13.5755 30.0522 0.0615366 0.141 11.9057 -13.6858 -98.6163 24.9344 0.0510561 0.116988 -6.04601 -42.9994 -10.7685 -1.26863 -7.82715 7.75138 -3.29298 2.32537 2.93659 -13.3291 3.34342 -3.36319 64.2408 45.5067 18.2229 -30.0522 0.0615366 0.141 -11.7345 -14.5801 103.044 -24.9344 0.0510559 0.116988 11.5547 -67.5283 13.4026 9.50369 -4.32711 2.09145 1.6339 -0.508708 -17.7701 -0.876987 -39.8926 -0.674123 -0.202102 0.754443 -0.0118381 -2.39345 -41.5694 -6.22357 -1.05801 -0.209427 15.4593 0.801613 -10.1701 12.8571 4.96962e-17 -7.95139e-16 1.2424e-17 -9.50369 -4.32711 2.09145 -2.32569 -0.598368 19.3733 0.876987 -39.8926 -0.674123 0.552402 2.06295 0.0260653 2.39345 -41.5694 -6.22357 -0.58484 -2.13599 -15.2358 -0.801613 -10.1701 12.8571 -1.98785e-16 -5.8393e-16 -1.27595e-14 
-2.00149 95.7727 0.198086 1.0985 -0.845051 -0.492648 0 5.22546 -1.18466 -0.200761 -1.42593 0.228428 0 5.77894 1.10239 -0.294477 -0.911135 0.297618 -1.0557e-17 6.16289 0.118334 -0.35573 -0.565267 0.346803 -1.13649e-17 6.69386 -0.456341 -0.43445 -0.41295 0.322019 -2.02997e-17 7.82529 -1.54945 -0.415037 -0.41933 0.343975 -2.60628e-17 9.77186 -0.940923 -0.288367 -0.781968 0.463584 -2.98794e-17 10.8563 1.62248 -0.0155424 0.186926 0.00620713 -1.32927e-17 4.92478 0.736013 -1.09208 -4.91828 -4.4018 -1.86396e-17 4.96043 0.433981 -3.68024 1.58117 -2.01712 -2.06766e-17 4.97002 0.787173 -6.04121 9.10898 0.698378 1.26863 -7.82717 7.75148 1.52662 3.51007 -3.82364 13.3291 3.34342 -3.36319 -70.5781 33.5102 -13.5324 30.0522 0.0615366 0.141 11.9062 -13.6827 -98.601 24.9344 0.0510561 0.116988 -6.06197 -43.0049 -10.7899 -1.26863 -7.82715 7.75138 -3.30195 2.32882 2.93219 -13.3291 3.34342 -3.36319 64.2451 45.521 18.1848 -30.0522 0.0615366 0.141 -11.7322 -14.5896 103.092 -24.9344 0.0510559 0.116988 11.5936 -67.532 13.4247 9.50369 -4.32711 2.09145 1.62473 -0.476302 -17.8166 -0.876987 -39.8926 -0.674123 -0.194475 0.725961 -0.0114395 -2.39345 -41.5694 -6.22357 -1.04269 -0.223 15.457 0.801613 -10.1701 12.8571 4.96962e-17 -7.95139e-16 1.2424e-17 -9.50369 -4.32711 2.09145 -2.33811 -0.570663 19.3393 0.876987 -39.8926 -0.674123 0.55115 2.05827 0.0260287 2.39345 -41.5694 -6.22357 -0.571332 -2.13993 -15.2383 -0.801613 -10.1701 12.8571 -1.98785e-16 -5.8393e-16 -1.27595e-14 
